# xmcd
#
# Track frame offsets:
#	150
#	16037
#	31737
#	48260
#	62125
#	77920
#	90568
#	103912
#	121497
#	134593
#	151142
#
# Disc length: 2225 seconds
#
# Revision: 1
# Processed by: cddbd v1.5.2PL0 Copyright (c) Steve Scherf et al.
# Submitted via: audiograbber 1.83.01
#
DISCID=8508af0b
DTITLE=Jeremy Parsons - Doggondest Feelin'
DYEAR=2009
DGENRE=Country
TTITLE0=The Night Hank Williams Died
TTITLE1=Doggondest Feelin'
TTITLE2=Hide Her Angel Wings
TTITLE3=Out Comes The Sun
TTITLE4=Can't Recall The Fall
TTITLE5=Since My Baby Left Me
TTITLE6=I'm Scared
TTITLE7=I Could Be Your Pick Me Up
TTITLE8=Passenger Seat
TTITLE9=When My Old Man Was Young
TTITLE10=Doggondest Feelin' lo fi
EXTD=
EXTT0=
EXTT1=
EXTT2=
EXTT3=
EXTT4=
EXTT5=
EXTT6=
EXTT7=
EXTT8=
EXTT9=
EXTT10=
PLAYORDER=
